<svg enable-background="new 0 0 64 64" viewBox="0 0 64 64" xmlns="http://www.w3.org/2000/svg"><circle cx="32" cy="32" fill="#76c2af" r="32"/><path d="m44 52c0 1.1-.9 2-2 2h-20c-1.1 0-2-.9-2-2 0-1.1.9-2 2-2h20c1.1 0 2 .9 2 2z" fill="#231f20" opacity=".2"/><path d="m44 50c0 1.1-.9 2-2 2h-20c-1.1 0-2-.9-2-2 0-1.1.9-2 2-2h20c1.1 0 2 .9 2 2z" fill="#fff"/><path d="m37 42s-1 6 3 6h-16s3-6 3-6z" fill="#e0e0d1"/><path d="m52 40c0 2.2-1.8 4-4 4h-32c-2.2 0-4-1.8-4-4v-22c0-2.2 1.8-4 4-4h32c2.2 0 4 1.8 4 4z" fill="#231f20" opacity=".2"/><path d="m16 40.5c-1.4 0-2.5-1.1-2.5-2.5v-22c0-1.4 1.1-2.5 2.5-2.5h32c1.4 0 2.5 1.1 2.5 2.5v22c0 1.4-1.1 2.5-2.5 2.5z" fill="#4f5d73"/><g fill="#fff"><path d="m48 15c.6 0 1 .4 1 1v22c0 .6-.4 1-1 1h-32c-.6 0-1-.4-1-1v-22c0-.6.4-1 1-1zm0-3h-32c-2.2 0-4 1.8-4 4v22c0 2.2 1.8 4 4 4h32c2.2 0 4-1.8 4-4v-22c0-2.2-1.8-4-4-4z"/><path d="m50 39.9v-26h-23.8l15 26z" opacity=".2"/></g></svg>